<?xml version="1.0" encoding="UTF-8" standalone="no"?>
<!DOCTYPE svg PUBLIC "-//W3C//DTD SVG 1.1//EN" "http://www.w3.org/Graphics/SVG/1.1/DTD/svg11.dtd">
<svg version="1.1" xmlns="http://www.w3.org/2000/svg" xmlns:xlink="http://www.w3.org/1999/xlink" preserveAspectRatio="xMidYMid meet" viewBox="263.8275862068967 264.8620689655172 38.482758620689594 38.82758620689674" width="34.48" height="34.83"><defs><path d="M279.99 265.91L280.55 265.97L281.11 266.05L281.66 266.15L282.2 266.27L282.74 266.42L283.26 266.58L283.78 266.77L284.29 266.97L284.79 267.2L285.27 267.44L285.75 267.7L286.22 267.98L286.67 268.28L287.11 268.59L287.54 268.92L287.95 269.27L288.35 269.63L288.74 270.01L289.11 270.4L289.47 270.8L289.82 271.22L290.14 271.65L290.45 272.1L290.75 272.56L291.02 273.03L291.28 273.51L291.52 274L291.74 274.5L291.95 275.02L292.13 275.54L292.29 276.07L292.44 276.61L292.56 277.16L292.66 277.72L292.74 278.28L292.8 278.85L292.83 279.43L292.84 280.01L292.83 280.59L292.8 281.17L292.74 281.74L292.66 282.31L292.56 282.86L292.44 283.41L292.29 283.95L292.13 284.48L291.95 285.01L291.74 285.52L291.52 286.02L291.28 286.51L291.02 286.99L290.75 287.46L290.46 287.91L299.31 296.84L295.5 300.69L286.65 291.75L286.22 292.04L285.75 292.32L285.27 292.58L284.79 292.82L284.29 293.05L283.78 293.25L283.26 293.44L282.74 293.6L282.2 293.75L281.66 293.87L281.11 293.97L280.55 294.05L279.99 294.11L279.41 294.15L278.84 294.16L278.26 294.15L277.69 294.11L277.12 294.05L276.56 293.97L276.01 293.87L275.47 293.75L274.93 293.6L274.41 293.44L273.89 293.25L273.38 293.05L272.89 292.82L272.4 292.58L271.92 292.32L271.46 292.04L271 291.74L270.56 291.43L270.13 291.1L269.72 290.75L269.32 290.39L268.93 290.02L268.56 289.62L268.2 289.22L267.86 288.8L267.53 288.37L267.22 287.92L266.93 287.46L266.65 286.99L266.39 286.51L266.15 286.02L265.93 285.52L265.73 285.01L265.54 284.48L265.38 283.95L265.23 283.41L265.11 282.86L265.01 282.31L264.93 281.74L264.87 281.17L264.84 280.59L264.83 280.01L264.84 279.43L264.87 278.85L264.93 278.28L265.01 277.72L265.11 277.16L265.23 276.61L265.38 276.07L265.54 275.54L265.73 275.02L265.93 274.5L266.15 274L266.39 273.51L266.65 273.03L266.93 272.56L267.22 272.1L267.53 271.65L267.86 271.22L268.2 270.8L268.56 270.4L268.93 270.01L269.32 269.63L269.72 269.27L270.13 268.92L270.56 268.59L271 268.28L271.46 267.98L271.92 267.7L272.4 267.44L272.89 267.2L273.38 266.97L273.89 266.77L274.41 266.58L274.93 266.42L275.47 266.27L276.01 266.15L276.56 266.05L277.12 265.97L277.69 265.91L278.26 265.87L278.84 265.86L279.41 265.87L279.99 265.91ZM278.13 271.31L277.78 271.35L277.43 271.39L277.09 271.46L276.76 271.53L276.43 271.62L276.1 271.73L275.78 271.84L275.47 271.97L275.16 272.11L274.86 272.26L274.57 272.42L274.28 272.59L274 272.77L273.73 272.97L273.47 273.17L273.21 273.38L272.96 273.61L272.72 273.84L272.49 274.08L272.27 274.33L272.06 274.59L271.86 274.85L271.67 275.13L271.49 275.41L271.32 275.7L271.16 276L271.01 276.3L270.87 276.61L270.75 276.93L270.63 277.25L270.53 277.58L270.44 277.91L270.37 278.25L270.31 278.59L270.26 278.94L270.22 279.29L270.2 279.65L270.19 280.01L270.2 280.37L270.22 280.73L270.26 281.08L270.31 281.43L270.37 281.77L270.44 282.11L270.53 282.44L270.63 282.77L270.75 283.09L270.87 283.41L271.01 283.72L271.16 284.02L271.32 284.32L271.49 284.61L271.67 284.89L271.86 285.17L272.06 285.43L272.27 285.69L272.49 285.94L272.72 286.18L272.96 286.42L273.21 286.64L273.47 286.85L273.73 287.06L274 287.25L274.28 287.43L274.57 287.61L274.86 287.77L275.16 287.92L275.47 288.05L275.78 288.18L276.1 288.3L276.43 288.4L276.76 288.49L277.09 288.56L277.43 288.63L277.78 288.68L278.13 288.71L278.48 288.73L278.84 288.74L279.19 288.73L279.55 288.71L279.89 288.68L280.24 288.63L280.58 288.56L280.91 288.49L281.24 288.4L281.57 288.3L281.89 288.18L282.2 288.05L282.51 287.92L282.81 287.77L283.1 287.61L283.39 287.43L283.67 287.25L283.94 287.06L284.21 286.85L284.46 286.64L284.71 286.42L284.95 286.18L285.18 285.94L285.4 285.69L285.61 285.43L285.81 285.17L286 284.89L286.18 284.61L286.36 284.32L286.52 284.02L286.66 283.72L286.8 283.41L286.93 283.09L287.04 282.77L287.14 282.44L287.23 282.11L287.3 281.77L287.37 281.43L287.42 281.08L287.45 280.73L287.47 280.37L287.48 280.01L287.47 279.65L287.45 279.29L287.42 278.94L287.37 278.59L287.3 278.25L287.23 277.91L287.14 277.58L287.04 277.25L286.93 276.93L286.8 276.61L286.66 276.3L286.52 276L286.36 275.7L286.18 275.41L286 275.13L285.81 274.85L285.61 274.59L285.4 274.33L285.18 274.08L284.95 273.84L284.71 273.61L284.46 273.38L284.21 273.17L283.94 272.97L283.67 272.77L283.39 272.59L283.1 272.42L282.81 272.26L282.51 272.11L282.2 271.97L281.89 271.84L281.57 271.73L281.24 271.62L280.91 271.53L280.58 271.46L280.24 271.39L279.89 271.35L279.55 271.31L279.19 271.29L278.84 271.28L278.48 271.29L278.13 271.31Z" id="dJGndpyu"></path></defs><g><g><use xlink:href="#dJGndpyu" opacity="1" fill="#1b1a1e" fill-opacity="1"></use></g></g></svg>